<svg width="40" height="40" viewBox="0 0 40 40" fill="none" xmlns="http://www.w3.org/2000/svg">
<path d="M0 20C0 8.95431 8.95431 0 20 0C31.0457 0 40 8.95431 40 20C40 31.0457 31.0457 40 20 40C8.95431 40 0 31.0457 0 20Z" fill="#F7F7F7"/>
<path d="M20.8101 7.95117C13.7601 7.95117 10.2051 13.0062 10.2051 17.2212C10.2051 19.7762 11.1738 22.0449 13.2438 22.8899C13.5851 23.0299 13.8888 22.8962 13.9876 22.5212C14.0563 22.2599 14.2176 21.5999 14.2913 21.3262C14.3926 20.9574 14.3526 20.8262 14.0801 20.5012C13.4813 19.7974 13.1001 18.8812 13.1001 17.5899C13.1001 13.8399 15.9051 10.4837 20.4063 10.4837C24.3926 10.4837 26.5826 12.9224 26.5826 16.1699C26.5826 20.4499 24.6876 24.0599 21.8763 24.0599C20.3226 24.0599 19.1613 22.7762 19.5351 21.2012C19.9813 19.3174 20.8451 17.2899 20.8451 15.9349C20.8451 14.7199 20.1913 13.7087 18.8451 13.7087C17.2588 13.7087 15.9813 15.3487 15.9813 17.5487C15.9813 18.9499 16.4576 19.8974 16.4576 19.8974C16.4576 19.8974 14.8313 26.7787 14.5476 27.9837C13.9813 30.3837 14.4626 33.3274 14.5063 33.6249C14.5276 33.7987 14.7551 33.8437 14.8563 33.7099C15.0026 33.5187 16.8951 31.1812 17.5351 28.8512C17.7201 28.1912 18.5801 24.7762 18.5801 24.7762C19.0988 25.7574 20.6013 26.6224 22.2051 26.6224C26.9763 26.6224 30.2113 22.2762 30.2113 16.4512C30.2063 12.0512 26.4776 7.95117 20.8113 7.95117H20.8101Z" fill="#134731"/>
</svg>
